<?xml version="1.0"?>
<svg xmlns="http://www.w3.org/2000/svg" height="512px" viewBox="0 0 496 496" width="512px" class=""><g><path d="m152 248c-52.9375 0-96 43.0625-96 96s43.0625 96 96 96 96-43.0625 96-96-43.0625-96-96-96zm0 176c-44.113281 0-80-35.886719-80-80s35.886719-80 80-80 80 35.886719 80 80-35.886719 80-80 80zm0 0" data-original="#000000" class="active-path" data-old_color="#000000" fill="#FFFFFF"/><path d="m152 296c-26.472656 0-48 21.527344-48 48s21.527344 48 48 48 48-21.527344 48-48-21.527344-48-48-48zm0 80c-17.648438 0-32-14.351562-32-32s14.351562-32 32-32 32 14.351562 32 32-14.351562 32-32 32zm0 0" data-original="#000000" class="active-path" data-old_color="#000000" fill="#FFFFFF"/><path d="m475.953125 147.542969c-4.25-19.230469-11.707031-37.269531-22.21875-53.757813l9.425781-18.839844-42.097656-42.097656-18.839844 9.425782c-16.488281-10.511719-34.527344-17.976563-53.765625-22.21875l-6.6875-20.054688h-59.53125l-6.6875 20.054688c-19.230469 4.242187-37.277343 11.699218-53.765625 22.21875l-18.839844-9.425782-42.097656 42.097656 9.425782 18.839844c-10.511719 16.488282-17.96875 34.527344-22.21875 53.757813l-20.054688 6.6875v37.769531h-6.207031l-7.640625 29.832031c-7.558594 2.335938-14.863282 5.351563-21.800782 9l-26.472656-15.679687-42.726562 42.71875 15.6875 26.480468c-3.65625 6.929688-6.671875 14.234376-9.007813 21.792969l-29.832031 7.648438v60.421875l29.832031 7.640625c2.335938 7.558593 5.351563 14.863281 9.007813 21.792969l-15.6875 26.480468 42.726562 42.71875 26.472656-15.679687c6.929688 3.65625 14.234376 6.664062 21.800782 9l7.640625 29.832031h60.421875l7.640625-29.832031c7.558593-2.335938 14.863281-5.351563 21.800781-9l26.472656 15.679687 42.726563-42.71875-15.6875-26.480468c3.65625-6.929688 6.671875-14.234376 9.007812-21.792969l29.824219-7.648438v-6.207031h37.769531l6.6875-20.054688c19.230469-4.242187 37.277344-11.699218 53.765625-22.21875l18.839844 9.425782 42.097656-42.097656-9.425781-18.839844c10.511719-16.488282 17.96875-34.527344 22.21875-53.757813l20.046875-6.6875v-59.53125zm-187.953125 214.25-26.761719 6.847656-1.214843 4.511719c-2.527344 9.390625-6.230469 18.351562-11.007813 26.648437l-2.335937 4.046875 14.074218 23.746094-25.167968 25.160156-23.746094-14.066406-4.054688 2.335938c-8.28125 4.777343-17.242187 8.480468-26.632812 11.007812l-4.511719 1.214844-6.847656 26.753906h-35.578125l-6.847656-26.761719-4.511719-1.214843c-9.390625-2.527344-18.351563-6.230469-26.632813-11.007813l-4.054687-2.335937-23.742188 14.0625-25.167969-25.15625 14.070313-23.746094-2.335937-4.046875c-4.777344-8.289063-8.480469-17.257813-11.007813-26.648438l-1.222656-4.503906-26.761719-6.847656v-35.578125l26.761719-6.847656 1.214843-4.511719c2.527344-9.390625 6.230469-18.351563 11.007813-26.648438l2.335937-4.046875-14.074218-23.746094 25.167968-25.15625 23.746094 14.0625 4.054688-2.335937c8.28125-4.777344 17.242187-8.480469 26.632812-11.007813l4.511719-1.214843 6.847656-26.761719h35.578125l6.847656 26.761719 4.511719 1.214843c9.390625 2.527344 18.351563 6.230469 26.632813 11.007813l4.054687 2.335937 23.742188-14.0625 25.167969 25.15625-14.070313 23.746094 2.335937 4.046875c4.777344 8.289063 8.480469 17.257813 11.007813 26.648438l1.214844 4.511719 26.769531 6.839843zm192-159.5625-17.929688 5.976562-.878906 4.601563c-3.910156 20.375-11.75 39.34375-23.289062 56.359375l-2.628906 3.878906 8.421874 16.847656-25.785156 25.785157-16.839844-8.421876-3.878906 2.628907c-17.015625 11.539062-35.984375 19.378906-56.367187 23.296875l-4.601563.878906-5.992187 17.9375h-26.230469v-38.207031l-29.832031-7.640625c-2.335938-7.558594-5.351563-14.863282-9.007813-21.792969l15.6875-26.480469-15.703125-15.703125 36.582031-36.582031c3.121094 1.503906 6.578126 2.40625 10.273438 2.40625s7.152344-.902344 10.28125-2.40625l45.984375 45.980469c-15.265625 12.738281-34.882813 20.425781-56.265625 20.425781-7.246094 0-14.449219-.878906-21.390625-2.617188l-3.875 15.519532c8.210937 2.058594 16.714844 3.097656 25.265625 3.097656 57.34375 0 104-46.65625 104-104s-46.65625-104-104-104-104 46.65625-104 104c0 8.96875 1.144531 17.863281 3.398438 26.441406l15.472656-4.074218c-1.902344-7.246094-2.871094-14.765626-2.871094-22.367188 0-21.382812 7.6875-41 20.414062-56.273438l45.984376 45.984376c-1.496094 3.136718-2.398438 6.59375-2.398438 10.289062s.910156 7.152344 2.40625 10.28125l-36.582031 36.582031-15.703125-15.703125-26.472656 15.679688c-6.929688-3.65625-14.234376-6.664063-21.800782-9l-7.640625-29.839844h-38.207031v-26.230469l17.929688-5.976562.878906-4.601563c3.910156-20.375 11.75-39.34375 23.289062-56.359375l2.628906-3.878906-8.421874-16.847656 25.785156-25.785157 16.839844 8.421876 3.878906-2.628907c17.015625-11.539062 35.984375-19.378906 56.367187-23.296875l4.601563-.878906 5.992187-17.9375h36.46875l5.976563 17.929688 4.601562.878906c20.382813 3.917968 39.351563 11.75 56.367188 23.296875l3.878906 2.628906 16.839844-8.421875 25.785156 25.785156-8.421875 16.847656 2.628906 3.878907c11.539063 17.015625 19.378907 35.984375 23.289063 56.359375l.878906 4.601562 17.9375 5.984375zm-100.414062 38.042969-45.984376-45.984376c1.496094-3.136718 2.398438-6.59375 2.398438-10.289062s-.902344-7.152344-2.40625-10.28125l45.980469-45.984375c12.738281 15.265625 20.425781 34.882813 20.425781 56.265625s-7.6875 41-20.414062 56.273438zm-75.585938-56.273438c0-4.40625 3.585938-8 8-8s8 3.59375 8 8-3.585938 8-8 8-8-3.59375-8-8zm18.28125-21.59375c-3.128906-1.503906-6.585938-2.40625-10.28125-2.40625s-7.152344.902344-10.28125 2.40625l-45.984375-45.980469c15.265625-12.738281 34.882813-20.425781 56.265625-20.425781s41 7.6875 56.273438 20.414062zm0 0" data-original="#000000" class="active-path" data-old_color="#000000" fill="#FFFFFF"/><path d="m312 48c-71.503906 0-131.128906 55.839844-135.71875 127.128906l15.964844 1.03125c4.058594-62.894531 56.65625-112.160156 119.753906-112.160156 66.167969 0 120 53.832031 120 120 0 63.296875-49.433594 115.902344-112.527344 119.777344l.984375 15.964844c71.519531-4.390626 127.542969-64.015626 127.542969-135.742188 0-74.992188-61.007812-136-136-136zm0 0" data-original="#000000" class="active-path" data-old_color="#000000" fill="#FFFFFF"/><path d="m480 464h16v16h-16zm0 0" data-original="#000000" class="active-path" data-old_color="#000000" fill="#FFFFFF"/><path d="m363.3125 448h-75.3125v16h68.6875l16 16h91.3125v-16h-84.6875zm0 0" data-original="#000000" class="active-path" data-old_color="#000000" fill="#FFFFFF"/><path d="m448 416h16v16h-16zm0 0" data-original="#000000" class="active-path" data-old_color="#000000" fill="#FFFFFF"/><path d="m432 432v-16h-52.6875l-16-16h-75.3125v16h68.6875l16 16zm0 0" data-original="#000000" class="active-path" data-old_color="#000000" fill="#FFFFFF"/><path d="m0 24h16v16h-16zm0 0" data-original="#000000" class="active-path" data-old_color="#000000" fill="#FFFFFF"/><path d="m100.6875 56h59.3125v-16h-52.6875l-16-16h-59.3125v16h52.6875zm0 0" data-original="#000000" class="active-path" data-old_color="#000000" fill="#FFFFFF"/><path d="m32 72h16v16h-16zm0 0" data-original="#000000" class="active-path" data-old_color="#000000" fill="#FFFFFF"/><path d="m64 72v16h28.6875l16 16h35.3125v-16h-28.6875l-16-16zm0 0" data-original="#000000" class="active-path" data-old_color="#000000" fill="#FFFFFF"/></g> </svg>
