<?xml version="1.0"?>
<svg xmlns="http://www.w3.org/2000/svg" id="Capa_1" enable-background="new 0 0 512 512" height="512px" viewBox="0 0 512 512" width="512px"><g><path id="XMLID_2_" d="m466.695 276.582c-23.159 0-42 18.807-42 41.924 0 18.003 11.428 33.388 27.422 39.316v57.617h-118.555v-33.211h33.958c8.284 0 15-6.716 15-15v-33.81h17.427c8.284 0 15-6.716 15-15s-6.716-15-15-15h-17.427v-32.396h17.427c8.284 0 15-6.716 15-15s-6.716-15-15-15h-17.427v-32.396h17.427c8.284 0 15-6.716 15-15s-6.716-15-15-15h-17.427v-33.81c0-8.284-6.716-15-15-15h-33.958v-17.38-15.875h118.555v57.617c-15.994 5.928-27.422 21.313-27.422 39.316 0 23.117 18.841 41.924 42 41.924s42-18.807 42-41.924c0-17.683-11.03-32.832-26.578-38.983v-72.95c0-8.284-6.716-15-15-15h-148.555c-8.284 0-15 6.716-15 15v30.876 17.38h-32.551v-48.748c15.765-6.044 26.989-21.307 26.989-39.145 0-23.117-18.841-41.924-42-41.924s-42 18.807-42 41.924c0 17.847 11.224 33.115 27 39.154v48.739h-32.562v-48.256c0-8.284-6.716-15-15-15h-148.555c-8.284 0-15 6.716-15 15v72.95c-15.548 6.151-26.578 21.301-26.578 38.983 0 23.117 18.841 41.924 42 41.924s42-18.807 42-41.924c0-18.002-11.428-33.388-27.422-39.316v-57.617h118.555v15.46c-.004.139-.021.275-.021.416v17.38h-33.937c-8.284 0-15 6.716-15 15v33.81h-17.427c-8.284 0-15 6.716-15 15s6.716 15 15 15h17.427v32.396h-17.427c-8.284 0-15 6.716-15 15s6.716 15 15 15h17.427v32.396h-17.427c-8.284 0-15 6.716-15 15s6.716 15 15 15h17.427v33.81c0 8.284 6.716 15 15 15h33.958v33.211h-118.555v-57.617c15.994-5.928 27.422-21.313 27.422-39.316 0-23.117-18.841-41.924-42-41.924-23.159.001-42 18.808-42 41.924 0 17.683 11.03 32.832 26.578 38.983v72.95c0 8.284 6.716 15 15 15h148.555c8.284 0 15-6.716 15-15v-48.211h32.551v48.703c-15.765 6.043-26.989 21.306-26.989 39.144 0 23.117 18.841 41.924 42 41.924s42-18.807 42-41.924c0-17.847-11.234-33.115-27.011-39.154v-48.694h32.573v48.211c0 8.284 6.716 15 15 15h148.555c8.284 0 15-6.716 15-15v-72.95c15.548-6.151 26.578-21.301 26.578-38.984 0-23.116-18.841-41.923-42-41.923zm0-71.164c-6.617 0-12-5.349-12-11.924s5.383-11.924 12-11.924 12 5.349 12 11.924-5.383 11.924-12 11.924zm-421.39 0c-6.617 0-12-5.349-12-11.924s5.383-11.924 12-11.924 12 5.349 12 11.924-5.384 11.924-12 11.924zm0 101.164c6.617 0 12 5.349 12 11.924s-5.383 11.924-12 11.924-12-5.349-12-11.924 5.383-11.924 12-11.924zm210.695 175.418c-6.617 0-12-5.349-12-11.924s5.383-11.924 12-11.924 12 5.349 12 11.924-5.383 11.924-12 11.924zm0-452c6.617 0 12 5.349 12 11.924s-5.383 11.924-12 11.924-12-5.349-12-11.924 5.383-11.924 12-11.924zm14.989 322.228v-4.887c0-8.284-6.716-15-15-15s-15 6.716-15 15v4.887h-32.551v-4.887c0-8.284-6.716-15-15-15s-15 6.716-15 15v4.887h-18.958v-18.81h4.898c8.284 0 15-6.716 15-15s-6.716-15-15-15h-4.898v-32.396h4.898c8.284 0 15-6.716 15-15s-6.716-15-15-15h-4.898v-32.396h4.898c8.284 0 15-6.716 15-15s-6.716-15-15-15h-4.898v-18.81h18.937v4.811c0 3.114.95 6.006 2.574 8.403 2.694 3.998 7.263 6.628 12.447 6.628 8.284 0 15-6.716 15-15v-4.842h32.551v4.811c0 3.115.951 6.009 2.577 8.406 2.695 3.996 7.263 6.624 12.445 6.624 8.284 0 15-6.716 15-15v-4.842h32.551v4.811.031c0 8.284 6.716 15 15 15s15-6.716 15-15v-.031-4.811h18.958v18.81h-4.912c-8.284 0-15 6.716-15 15s6.716 15 15 15h4.912v32.396h-4.912c-8.284 0-15 6.716-15 15s6.716 15 15 15h4.912v32.396h-4.912c-8.284 0-15 6.716-15 15s6.716 15 15 15h4.912v18.81h-18.958v-4.887c0-8.284-6.716-15-15-15s-15 6.716-15 15v4.887h-32.573zm195.706-45.646c6.617 0 12 5.349 12 11.924s-5.383 11.924-12 11.924-12-5.349-12-11.924 5.384-11.924 12-11.924z" data-original="#000000" class="active-path" data-old_color="#000000" fill="#FFFFFF"/></g> </svg>
